<svg width="1920" height="1080" viewBox="0 0 1920 1080" fill="none" xmlns="http://www.w3.org/2000/svg">
<path d="M710.32 69.9746C637.3 9.69346 408.409 0 408.409 0H1920V1079.66C1920 1079.66 1793.45 726.352 1540.35 931.132C1436.54 1034.76 1020.03 967.154 890.793 967.154C795.333 967.154 628.47 1075.34 473.079 1079.66C230.014 1086.42 0 990.433 0 990.433L1.75097 737.383L26.2171 719.739C46.2696 715.159 55.4808 712.711 87.4974 712.711C298.133 712.711 692.724 1021.69 691.32 860.537C689.916 699.383 1180.57 677.441 1270.44 824.054C1360.31 970.668 1474.11 771.749 1474.11 771.749C1474.11 771.749 1487.6 689.16 1415.28 535.882C1385.04 471.792 1612.52 527.987 1500.31 433.245C1363.87 332.582 1192.68 275.214 1302.57 205.767C1491.44 86.4162 1664.43 463.003 1726.22 369.097C1788.01 275.192 1539.52 50.2848 1457.73 69.9746C1375.93 89.6645 783.341 130.256 710.32 69.9746Z" fill="url(#paint0_linear_63_7)"/>
<defs>
<linearGradient id="paint0_linear_63_7" x1="496.624" y1="862.547" x2="1324.11" y2="-271.1" gradientUnits="userSpaceOnUse">
<stop stop-color="#FB764D"/>
<stop offset="1" stop-color="#852F42"/>
</linearGradient>
</defs>
</svg>
