<svg width="1920" height="1080" viewBox="0 0 1920 1080" fill="none" xmlns="http://www.w3.org/2000/svg">
<path d="M408.409 0.0451875C408.409 0.0451875 483.566 -11.3065 554.784 0.0451875H1920V1079.7C1920 1079.7 1793.45 726.397 1540.35 931.177C1436.54 1034.8 1249.24 998.545 1120 998.545C1024.54 998.545 637.391 1075.39 482 1079.7C238.935 1086.46 0 990.478 0 990.478V736V690.545C20.0525 685.965 20.9834 761.045 53 761.045C263.636 761.045 469.904 1145.7 468.5 984.545C467.096 823.391 850.5 828.134 1075.5 872.045C1270.5 889.545 1429.5 770.045 1429.5 770.045C1429.5 770.045 1608 688.545 1369 581.045C1272.5 529.045 1643.71 534.287 1531.5 439.545C1395.06 338.882 1167.1 294.492 1277 225.045C1465.87 105.694 1751.71 382.451 1813.5 288.545C1875.29 194.64 1440.5 207.045 1360.5 86.0452C1196 -33.9548 718.52 95.8264 645.5 35.5452C621.901 16.0631 588.791 5.46575 554.784 0.0451875H408.409Z" fill="url(#paint0_linear_63_7)"/>
<defs>
<linearGradient id="paint0_linear_63_7" x1="496.624" y1="862.593" x2="1324.11" y2="-271.054" gradientUnits="userSpaceOnUse">
<stop stop-color="#FB764D"/>
<stop offset="1" stop-color="#852F42"/>
</linearGradient>
</defs>
</svg>
