<svg width="1920" height="1080" viewBox="0 0 1920 1080" fill="none" xmlns="http://www.w3.org/2000/svg">
<path d="M642.5 90C569.48 29.7188 299.5 0.045166 299.5 0.045166H1920V1079.7C1920 1079.7 1761.1 676.72 1508 881.5C1404.19 985.124 1249.24 998.545 1120 998.545C1024.54 998.545 679 856.5 488 998.545C313 1128.69 0 990.478 0 990.478V736V690.545C20.0525 685.965 20.9834 761.045 53 761.045C263.636 761.045 207.5 907 398.5 907C713.5 796.5 850.5 828.134 1075.5 872.045C1270.5 889.545 1370.5 846 1370.5 846C1370.5 846 1467 827.5 1351 648.5C1235 469.5 1626.71 564.242 1514.5 469.5C1378.06 368.837 1128.6 327.447 1238.5 258C1427.37 138.649 1607.21 381.905 1669 288C1730.79 194.095 1472.5 185.5 1392.5 64.5C1228 -55.5 715.52 150.281 642.5 90Z" fill="url(#paint0_linear_63_7)"/>
<defs>
<linearGradient id="paint0_linear_63_7" x1="496.624" y1="862.593" x2="1324.11" y2="-271.054" gradientUnits="userSpaceOnUse">
<stop stop-color="#FB764D"/>
<stop offset="1" stop-color="#852F42"/>
</linearGradient>
</defs>
</svg>
