<svg width="1988" height="699" viewBox="0 0 1988 699" fill="none" xmlns="http://www.w3.org/2000/svg">
<path d="M1863.5 445.789C1907.1 445.789 1980.17 353.959 1988 278.256V110.493C1988 -2.50682 1584 -65.5 1224.5 110.493C865 286.486 775 254 677.5 193C580 132 0 278.256 0 278.256V410.756C13.3333 414.938 0.599998 350 43 350C96 350 43 631.551 137 500.5C259 330.412 317 764.044 400 615.5C483 466.956 550 444.242 628 571C717.533 716.5 739.33 522.174 783 467.5C846.5 388 845.745 391.583 1022.5 634.5C1203.5 883.25 1245 307.591 1323 538C1401 768.409 1408.5 445.789 1440.5 428.121C1520.86 383.752 1529.5 518.568 1579 518.568C1628.5 518.568 1668.85 286.964 1696.5 278.256C1760 258.256 1809 445.789 1863.5 445.789Z" fill="url(#paint0_linear_316_12)"/>
<defs>
<linearGradient id="paint0_linear_316_12" x1="950.002" y1="278.256" x2="969.153" y2="610.525" gradientUnits="userSpaceOnUse">
<stop stop-color="#FB764D"/>
<stop offset="1" stop-color="#852F42"/>
</linearGradient>
</defs>
</svg>
