<svg viewBox="0 0 1988 656" fill="none" xmlns="http://www.w3.org/2000/svg">
<path d="M1845 446.364C1888.6 446.364 1980.17 294.959 1988 219.256V51.4933C1988 -61.5068 1267 30.2563 987 146.256C707 262.256 620.5 280.256 523 219.256C425.5 158.256 0 219.256 0 219.256V351.756C13.3333 355.938 50.6 271.412 93 271.412C146 271.412 192 369.121 213.5 446.364C235 523.607 342.5 608.112 425.5 459.568C508.5 311.024 614 332.81 692 459.568C770 586.326 830.5 454.789 847 386.789C863.5 318.788 1016.5 299.404 1102.5 587.25C1188.5 875.095 1246 138.712 1324 369.121C1402 599.53 1408.5 386.789 1440.5 369.121C1520.86 324.752 1512.5 529.549 1562 529.549C1611.5 529.549 1677.85 318.201 1705.5 309.493C1769 289.493 1790.5 446.364 1845 446.364Z" fill="url(#paint0_linear_115_2)"/>
<defs>
<linearGradient id="paint0_linear_115_2" x1="950.002" y1="219.256" x2="969.152" y2="551.525" gradientUnits="userSpaceOnUse">
<stop stop-color="#FB764D"/>
<stop offset="1" stop-color="#852F42"/>
</linearGradient>
</defs>
</svg>
