<svg width="1988" height="657" viewBox="0 0 1988 657" fill="none" xmlns="http://www.w3.org/2000/svg">
<path d="M1863.5 418.278C1988 418.278 1980.17 271.735 1988 196.033V28.2702C1988 -84.73 1952.5 267.777 1786 98.5C1619.5 -70.7775 1661.5 204 1358.5 44.4999C1055.5 -115.001 0 208 0 208V328.534C13.3333 332.715 -6.4 368.5 36 368.5C89 368.5 43 681 142 462.641C241 244.282 336.5 702 395.5 533.276C467.626 327.015 536.5 310.14 604.5 488.64C665.318 648.288 726.5 749 771 533.276C791.556 433.627 808.245 259.722 985 502.639C1166 751.39 1159.99 115 1274 441.5C1358.5 683.5 1387.5 306.809 1419.5 289.142C1499.86 244.773 1525 533.276 1574.5 533.276C1624 533.276 1671.35 297.849 1699 289.142C1762.5 269.142 1809 418.278 1863.5 418.278Z" fill="url(#paint0_linear_316_14)"/>
<defs>
<linearGradient id="paint0_linear_316_14" x1="950.004" y1="196.031" x2="969.154" y2="528.3" gradientUnits="userSpaceOnUse">
<stop stop-color="#FB764D"/>
<stop offset="1" stop-color="#852F42"/>
</linearGradient>
</defs>
</svg>
