<svg width="1988" height="772" viewBox="0 0 1988 772" fill="none" xmlns="http://www.w3.org/2000/svg">
<path d="M1863.5 515.636C1907.1 515.636 1980.17 369.095 1988 293.392V125.629C1988 12.6292 1842.5 -87.9999 1518 125.63C1193.5 339.261 1113.5 141.999 895.5 78.4987C677.5 14.9987 0 293.392 0 293.392V425.892C13.3333 430.074 0.599998 365.136 43 365.136C96 365.136 17.5 682.5 142 560C291.204 413.193 312.5 838.044 395.5 689.5C478.5 540.956 536.5 407.5 604.5 586C665.318 745.648 727.33 685.31 771 630.636C834.5 551.136 801.245 465.083 978 708C1159 956.75 1172.11 384.793 1285.5 600C1403 823 1415.5 507.168 1447.5 489.5C1527.86 445.131 1525 630.636 1574.5 630.636C1624 630.636 1675.85 395.208 1703.5 386.5C1767 366.5 1809 515.636 1863.5 515.636Z" fill="url(#paint0_linear_316_13)"/>
<defs>
<linearGradient id="paint0_linear_316_13" x1="950.003" y1="293.393" x2="969.153" y2="625.662" gradientUnits="userSpaceOnUse">
<stop stop-color="#FB764D"/>
<stop offset="1" stop-color="#852F42"/>
</linearGradient>
</defs>
</svg>
