<svg width="1920" height="437" viewBox="0 0 1920 437" fill="none" xmlns="http://www.w3.org/2000/svg">
<path d="M1929 0H-59V132.5C-45.6667 136.681 -0.400002 240.312 42 240.312C95 240.312 133 149.865 154.5 227.108C176 304.351 369.5 336.044 452.5 187.5C535.5 38.9557 511 273.242 589 400C667 526.758 771.5 235.533 788 167.532C804.5 99.5321 935.5 -89.8457 1021.5 198C1107.5 485.846 1172 69.5914 1250 300C1328 530.409 1376 403.306 1391 383.5C1406 363.694 1453.5 310.292 1503 310.292C1552.5 310.292 1645 250.215 1662.5 227.108C1680 204.001 1726.5 324.5 1781 324.5C1824.6 324.5 1921.17 75.7025 1929 0Z" fill="url(#paint0_linear_115_3)"/>
<defs>
<linearGradient id="paint0_linear_115_3" x1="891" y1="-2.41299e-06" x2="910.151" y2="332.269" gradientUnits="userSpaceOnUse">
<stop stop-color="#FB764D"/>
<stop offset="1" stop-color="#852F42"/>
</linearGradient>
</defs>
</svg>
