<svg width="1988" height="763" viewBox="0 0 1988 763" fill="none" xmlns="http://www.w3.org/2000/svg">
<path d="M1894.5 574C1938.1 574 1980.17 346.8 1988 271.097C1988 271.097 1988 -85.5 1845 19.9995C1702 125.499 1700 -96.5013 1451.5 135.999C1203 368.5 1129.5 356.5 1054 219.999C978.5 83.4992 0 271.097 0 271.097V403.597C13.3333 407.778 50.6 323.253 93 323.253C146 323.253 197.615 530.627 251.5 590C359.5 709 322.5 582.044 405.5 433.5C488.5 284.956 471 479.742 549 606.5C627 733.258 721.5 804 738 736C754.5 668 719 352.097 927 622.5C1110.17 860.62 1106 267.796 1184 498.204C1262 728.613 1331 728.806 1346 709C1361 689.194 1451.5 341.5 1629.5 622.5C1655.99 664.316 1700.15 451.334 1778.5 403.597C1875.5 344.5 1840 574 1894.5 574Z" fill="url(#paint0_linear_159_11)"/>
<defs>
<linearGradient id="paint0_linear_159_11" x1="950.003" y1="271.097" x2="969.154" y2="603.366" gradientUnits="userSpaceOnUse">
<stop stop-color="#FB764D"/>
<stop offset="1" stop-color="#852F42"/>
</linearGradient>
</defs>
</svg>
