<svg width="1988" height="432" viewBox="0 0 1988 432" fill="none" xmlns="http://www.w3.org/2000/svg">
<path d="M1988 0H0V132.5C13.3333 136.681 34.1 38.5 76.5 38.5C129.5 38.5 194 30.757 215.5 108C237 185.243 318 281.044 401 132.5C484 -16.0443 570 273.242 648 400C726 526.758 830.5 235.533 847 167.532C863.5 99.5321 945.5 3.65427 1031.5 291.5C1117.5 579.346 1153.81 -26.5 1219.5 167.532C1297.5 397.941 1363.5 403.306 1378.5 383.5C1393.5 363.694 1439.5 240.312 1489 240.312C1538.5 240.312 1608 100.607 1625.5 77.5C1643 54.3931 1785.5 324.5 1840 324.5C1883.6 324.5 1980.17 75.7025 1988 0Z" fill="url(#paint0_linear_115_4)"/>
<defs>
<linearGradient id="paint0_linear_115_4" x1="950" y1="-2.41299e-06" x2="969.151" y2="332.269" gradientUnits="userSpaceOnUse">
<stop stop-color="#FB764D"/>
<stop offset="1" stop-color="#852F42"/>
</linearGradient>
</defs>
</svg>
