<svg width="1988" height="638" viewBox="0 0 1988 638" fill="none" xmlns="http://www.w3.org/2000/svg">
<path d="M1845 423.87C1888.6 423.87 1980.17 272.465 1988 196.763C1988 196.763 1884 -22.9996 1805.5 70.5001C1727 164 1604 -83.7374 1324 32.2626C1044 148.263 802.5 269.501 727 133C651.5 -3.49989 0 196.763 0 196.763V329.263C13.3333 333.444 50.6 248.918 93 248.918C146 248.918 257 299.757 278.5 377C300 454.243 379 556.044 462 407.5C545 258.956 589 407.242 667 534C745 660.758 774.5 505.074 791 437.074C807.5 369.074 871 276.654 957 564.5C1043 852.346 1177 177.091 1255 407.5C1333 637.909 1383.5 456.88 1398.5 437.074C1413.5 417.268 1512.5 507.055 1562 507.055C1611.5 507.055 1698 367.107 1715.5 344C1733 320.893 1790.5 423.87 1845 423.87Z" fill="url(#paint0_linear_159_10)"/>
<defs>
<linearGradient id="paint0_linear_159_10" x1="950.004" y1="196.762" x2="969.154" y2="529.031" gradientUnits="userSpaceOnUse">
<stop stop-color="#FB764D"/>
<stop offset="1" stop-color="#852F42"/>
</linearGradient>
</defs>
</svg>
