<svg className='absolute left-0 top-0' viewBox="0 0 1989 604" fill="none" xmlns="http://www.w3.org/2000/svg">
<path id='drip1' d="M1845.5 395.108C1889.1 395.108 1980.67 243.703 1988.5 168C1988.5 168 1977 6.00024 1907 3.50006L1904.3 3.40327C1823.55 0.498068 1264.18 -19.6255 987.5 95.0005C707.5 211 621 229 523.5 168C426 107 0.5 168 0.5 168V300.5C13.8333 304.682 51.1 220.156 93.5 220.156C146.5 220.156 192.5 317.865 214 395.108C235.5 472.351 343 556.856 426 408.312C509 259.768 614.5 281.554 692.5 408.312C770.5 535.07 831 403.533 847.5 335.533C864 267.532 1017 248.148 1103 535.994C1189 823.84 1246.5 87.4564 1324.5 317.865C1402.5 548.274 1426 337.671 1441 317.865C1456 298.059 1513 478.293 1562.5 478.293C1612 478.293 1697.5 300.04 1715 276.933C1732.5 253.826 1791 395.108 1845.5 395.108Z" fill="url(#paint0_linear_115_2)"/>
<defs>
<linearGradient id="paint0_linear_115_2" x1="950.502" y1="168" x2="969.653" y2="500.269" gradientUnits="userSpaceOnUse">
<stop stop-color="#FB764D"/>
<stop offset="1" stop-color="#852F42"/>
</linearGradient>
</defs>
</svg>
