<svg id="Layer_1" data-name="Layer 1" xmlns="http://www.w3.org/2000/svg" xmlns:xlink="http://www.w3.org/1999/xlink" viewBox="0 0 1374 3071.91"><defs><style>.cls-1{fill:url(#linear-gradient);}.cls-2{fill:url(#linear-gradient-2);}.cls-3{fill:url(#linear-gradient-3);}.cls-4{fill:url(#linear-gradient-4);}.cls-5{fill:url(#linear-gradient-5);}.cls-6{fill:url(#linear-gradient-6);}.cls-7{fill:url(#linear-gradient-7);}.cls-8{fill:url(#linear-gradient-8);}.cls-9{fill:url(#linear-gradient-9);}.cls-10{fill:url(#linear-gradient-10);}.cls-11{fill:url(#linear-gradient-11);}.cls-12{fill:url(#linear-gradient-12);}.cls-13{fill:url(#linear-gradient-13);}.cls-14{fill:url(#linear-gradient-14);}.cls-15{fill:url(#linear-gradient-15);}.cls-16{fill:url(#linear-gradient-16);}.cls-17{fill:url(#linear-gradient-17);}</style><linearGradient id="linear-gradient" x1="628.31" y1="2441.67" x2="1244.31" y2="3192.67" gradientTransform="matrix(1, 0, 0, -1, 0, 3074)" gradientUnits="userSpaceOnUse"><stop offset="0.01" stop-color="#fb764d"/><stop offset="1" stop-color="#852f42"/></linearGradient><linearGradient id="linear-gradient-2" x1="464.48" y1="2344.26" x2="492.48" y2="2369.26" xlink:href="#linear-gradient"/><linearGradient id="linear-gradient-3" x1="481.43" y1="2398.19" x2="515.43" y2="2431.19" xlink:href="#linear-gradient"/><linearGradient id="linear-gradient-4" x1="748.87" y1="2463.23" x2="785.87" y2="2588.23" xlink:href="#linear-gradient"/><linearGradient id="linear-gradient-5" x1="18.93" y1="2970.8" x2="152.93" y2="3045.8" xlink:href="#linear-gradient"/><linearGradient id="linear-gradient-6" x1="769.52" y1="2748.21" x2="979.52" y2="2550.21" gradientTransform="matrix(1, 0, 0, -1, 0, 3074)" gradientUnits="userSpaceOnUse"><stop offset="0" stop-color="#fb764d"/><stop offset="1" stop-color="#852f42"/></linearGradient><linearGradient id="linear-gradient-7" x1="676.51" y1="2593.91" x2="853.97" y2="2593.91" xlink:href="#linear-gradient"/><linearGradient id="linear-gradient-8" x1="1083.46" y1="2911.58" x2="1117.46" y2="2965.58" xlink:href="#linear-gradient"/><linearGradient id="linear-gradient-9" x1="1106.43" y1="2919.82" x2="1071.43" y2="2834.82" xlink:href="#linear-gradient"/><linearGradient id="linear-gradient-10" x1="895.61" y1="2761.12" x2="1006.61" y2="2634.12" gradientTransform="matrix(1, 0, 0, -1, 0, 3074)" gradientUnits="userSpaceOnUse"><stop offset="0.01" stop-color="#fb764d"/><stop offset="0.48" stop-color="#c35448"/><stop offset="1" stop-color="#852f42"/></linearGradient><linearGradient id="linear-gradient-11" x1="267.54" y1="248.4" x2="411.43" y2="83.77" gradientTransform="matrix(1, 0, 0, 1, 0, 0)" xlink:href="#linear-gradient-10"/><linearGradient id="linear-gradient-12" x1="546.69" y1="259.51" x2="661.14" y2="128.56" gradientTransform="matrix(1, 0, 0, 1, 0, 0)" xlink:href="#linear-gradient-10"/><linearGradient id="linear-gradient-13" x1="240.98" y1="1800.15" x2="229.04" y2="2343.59" gradientTransform="matrix(1, 0, 0, -1, 0, 3074)" gradientUnits="userSpaceOnUse"><stop offset="0.02" stop-color="#fb764d"/><stop offset="1" stop-color="#852f42"/></linearGradient><linearGradient id="linear-gradient-14" x1="1129.5" y1="2306" x2="1129.5" y2="1740.67" gradientTransform="matrix(1, 0, 0, -1, 0, 3074)" gradientUnits="userSpaceOnUse"><stop offset="0" stop-color="#852f42"/><stop offset="1" stop-color="#fb764d"/></linearGradient><linearGradient id="linear-gradient-15" x1="738.09" y1="1887.53" x2="756.16" y2="1574.04" gradientTransform="matrix(1.01, -0.01, -0.01, -1, -44.55, 3108.99)" xlink:href="#linear-gradient-6"/><linearGradient id="linear-gradient-16" x1="2467.43" y1="970.4" x2="861.44" y2="903.61" gradientTransform="matrix(1, 0, 0, -1, 0, 3074)" gradientUnits="userSpaceOnUse"><stop offset="0.49" stop-color="#852f42"/><stop offset="1" stop-color="#fb764d"/></linearGradient><linearGradient id="linear-gradient-17" x1="-1014.05" y1="871.27" x2="446.51" y2="930.96" xlink:href="#linear-gradient-16"/></defs><path class="cls-1" d="M298,0S461,8,513,57.75s474,16.25,532.25,0S1248,139,1204,216.5s-210-98.5-344.5,0,184.5,109.5,236,236S940,608,940,608s-218,59-282-62S510,577,511,710,231,588,81,588c-22.8,0-40.89,2.22-55.17,6,.17,7.72-1.73,15-4.32,22.25s-5.85,14.28-8.44,21.47a147.24,147.24,0,0,0-5.91,23.11C5,672.52,3.41,684.45.32,695.83a5.33,5.33,0,0,1-.32.87V768H1366V0Z" transform="translate(1 0)"/><path class="cls-2" d="M459.39,717.08c-4.21,11,25.25,17.52,27.63,12.08,2.09-4.77,2.16-24.22-4.41-27.72C477.89,698.93,462.55,708.86,459.39,717.08Z" transform="translate(1 0)"/><path class="cls-3" d="M503.9,652.83c1.24-3.26,2.86-6.45,3.12-9.93s-1.23-7.4-4.5-8.62c-4-1.49-8.42,1.89-9.57,6s.07,8.4,1.51,12.37,3.13,8,2.9,12.24-14.49,31.65-1.12,22.48C504.8,681.45,500.43,661.89,503.9,652.83Z" transform="translate(1 0)"/><path class="cls-4" d="M713.05,587.11c6.54,5,14.27,9.48,22.45,8.72s15.93-9.13,13.11-16.86c-.54-1.47-1.42-2.85-1.62-4.41-.56-4.41,4.85-7.66,9.2-6.71s7.57,4.5,10.42,7.91c6.65,8,13.12,16.22,21.34,22.54s18.62,10.57,28.88,9.08,19.83-9.92,20.29-20.28c.56-12.28-10.54-21.6-20.8-28.37-11.58-7.63-23.75-14.82-37.22-18.11s-28.57-2.22-40,5.68c-5.43,3.76-9.88,8.93-15.77,11.91a25.41,25.41,0,0,1-25.19-1.6c-8.91-6-19.54-6.41-11.88,5.31C692.24,571,704.43,580.56,713.05,587.11Z" transform="translate(1 0)"/><path class="cls-5" d="M33.11,27.63c-8.94,7.27-17.27,16-21,26.89-5.5,16.09.33,34.6,11.82,47.12S51.8,121.33,68.4,125c8.32,1.82,16.92,2.84,25.39,1.81,9.87-1.19,19.21-5.13,28-9.88,13.33-7.24,26-16.87,33.18-30.21s8-30.91-1-43.07C138.55,23,110.7,30.17,91.81,16.89c-8.16-5.74-8.4-13.63-19.54-12C59,6.88,43.15,19.48,33.11,27.63Z" transform="translate(1 0)"/><path class="cls-6" d="M910.84,329.12a175.17,175.17,0,0,0-68.9-20.9c-11.52-1-23.42-.8-34.23,3.29-27.37,10.35-40.37,44.08-35,72.86s24.74,53,46.18,72.84c14,13,29.32,25,40,40.9s16,37,7.85,54.25c-2.7,5.7-6.82,11-7.22,17.32-.42,6.66,3.63,13,9.09,16.84s12.14,5.5,18.74,6.46c36.67,5.39,73.16-8.49,107.44-22.6,39.12-16.1,73.52-50.32,77.52-92.43,1.16-12.12.07-24.78-5.54-35.57-4.82-9.31-12.73-16.69-21.33-22.69-20.14-14.06-44.16-21.2-67.73-28.12l-72.63-21.32c-6.19-1.82-12.73-3.86-17-8.74s-4.67-13.56.77-17c3.78-2.4,8.69-1.47,13-.46l26.58,6.17c3.47.8,8.14,1,9.48-2.26,1.44-3.52-2.63-6.67-6.05-8.31C925,336.33,917.61,332.83,910.84,329.12Z" transform="translate(1 0)"/><path class="cls-7" d="M718,414.78c-18.25,1.4-37.07,12.84-41,30.72-.71,3.23-.87,6.79.73,9.69,2.3,4.19,7.4,5.76,12,7.15,9,2.74,18.07,6.39,24.55,13.19,1.88,2,3.59,4.41,3.64,7.15a11.1,11.1,0,0,1-2.24,6.16c-4.88,7.42-12.53,12.5-18.61,19s-10.73,15.78-7.57,24.08C693.46,542.25,707.31,545,718,542s19.79-9.93,30.28-13.43c23.31-7.78,48.39,2.41,70.9,12.22,8.44,3.67,18.42,7.27,26.43,2.74,10.41-5.88,10-21.35,5-32.17-7-14.91-19.86-26.3-33.6-35.41a184.64,184.64,0,0,0-33.78-17.66c-6.68-2.66-13.66-5.28-17.55-11.73-3.55-5.9-1.2-12.08-3.42-17.91C756.89,414.71,731,413.79,718,414.78Z" transform="translate(1 0)"/><path class="cls-8" d="M1037.8,61.33c-14.61,1-30.06,5.84-38.66,17.69-4,5.44-6.15,12-7.35,18.61-3.47,19.19,1.72,40.19,15.23,54.24s35.47,20,53.62,12.92c10.3-4,18.83-11.67,29.07-15.85,22.22-9.07,50.62,2.1,60.69,23.89,6,12.9,7.57,30.14,20.5,36,13.45,6.11,29.52-7.15,31-21.84s-7.06-28.56-17.06-39.42c-11.61-12.61-25.48-22.91-39.55-32.69-18.73-13-38.11-24.88-57.63-36.68C1069.48,67.23,1061.14,59.75,1037.8,61.33Z" transform="translate(1 0)"/><path class="cls-9" d="M1086.8,167.62c-9.22,3.82-18.08,9-28,10.38-9.18,1.31-18.63-.73-27.74,1-3.11.58-6.68,2.18-7.09,5.31-.57,4.23,4.72,6.53,8.9,7.39,21.21,4.39,42.39,9.23,62.77,16.56,15.37,5.52,30.49,12.52,46.73,14.29a8.41,8.41,0,0,0,4.68-.45,7.41,7.41,0,0,0,3-3.47c5.06-10.15,1.37-22.92-6-31.57C1129.48,169.82,1108.34,158.68,1086.8,167.62Z" transform="translate(1 0)"/><path class="cls-10" d="M908,354.33a15.34,15.34,0,0,0-6.67-.37c-2.19.53-4.24,2.32-4.29,4.57-.07,3.14,3.4,5,6.37,6.06a137.37,137.37,0,0,0,55,7.24c7.67-.56,17-1,21.25,5.38,1.73,2.61,2.15,5.88,3.51,8.71s4.4,5.41,7.38,4.42c2.42-.8,3.6-3.64,3.56-6.18-.12-6.78-6.39-11.72-12.43-14.78C960.12,358.45,931.64,359.14,908,354.33Z" transform="translate(1 0)"/><path class="cls-11" d="M364,151c-42.38,3.32-49.5-9.49-75-1-12.76,4.25-33.79,15.05-33,26,1.12,15.51,45.5,23.92,69,26,18.8,1.66,64.1,5.67,76-17,5.3-10.1,3.74-25.06-4-32C390.06,146.78,381.1,149.66,364,151Z" transform="translate(1 0)"/><path class="cls-12" d="M600,157c-1.71-3.88-7.09-5.38-12-6-4.52,2.3-26,13.83-32,38-3,12-3.39,32.15,6,37,11.85,6.11,27.82-18.06,48-12,9.81,2.94,10.88,10.11,19,10,11.68-.16,25.8-15.24,24-30-1.94-15.92-21.55-24.7-35-24-12.44.65-21.87,9.53-24,7C591.68,174.25,603.14,164.12,600,157Z" transform="translate(1 0)"/><path class="cls-13" d="M1,1227V768H305.29c-12.76,45.8,34.6,24-13.77,52.13-26.19,18.13,13.63,72.16,28.74,96s59.73,51.38,75.56,20.51c25.19-49.15,98.16,38.59,73,92.69-12.15,26.1-105.44-1.33-136,24.43-24.45,20.62,78.58,143.64,96.05,173.22Z" transform="translate(1 0)"/><path class="cls-14" d="M1366,1213V768H955c1.36,27.9,71,32.55,57.65,67.36-16.61,43.5,28.82,2.85,31.27,96.49S929.39,939.23,899.43,978s53.59,103.88,68.85,155.9c12.2,41.62-99.52,62.06-68.85,79.09Z" transform="translate(1 0)"/><path class="cls-15" d="M1356.35,1196,9.71,1207.75A10.68,10.68,0,0,0-1,1218.42L.09,1309c.14,11.3,16,14.5,20.67,4.18,11.5-25.14,26.31-54.43,42.62-54.58,36.51-.32,69,95.54,84.51,171.41s90.26,158.37,146.16,11.72,128.76-125.85,183.58-1.6,95.36-5.54,106.15-72.54,116-87,177.72,195.7,95-442.18,150.71-216,70.09,18.88,80.25-.7,51,157.41,85.08,157.11,91.46-176.19,103.32-199,53.37,115.81,90.91,115.49c28.51-.25,85.63-135,95.41-212.43A10.63,10.63,0,0,0,1356.35,1196Z" transform="translate(1 0)"/><path class="cls-16" d="M1230.14,2952.09c-27,109.23,108.54,126.2,142.86,118.06V1227c-42.94,59.65-149.13,144.5-148.88,208.55.32,80.07,100.72,74,109,112.23s-74.6,231.27-37.42,281.9-91.34,309.64-186.21,388.48,157.37,339.15,119.25,381.22.25,61.67,61.21,94.12S1264,2815.56,1230.14,2952.09Z" transform="translate(1 0)"/><path class="cls-17" d="M115.75,1358.47c24.34-105.28-84.32-114-114.75-106.38V3071.75c38.25-57.32,114.75-187.44,114.75-249.28,0-77.29-89-72.07-96.17-109s66.9-222.82,34.15-271.91,82-298.37,166.31-373.92S62.55,1923,96.47,1882.6s-60.95-148.26-76.42-231.87C10.06,1596.77,85.32,1490.08,115.75,1358.47Z" transform="translate(1 0)"/></svg>