<svg width="1920" height="1081" viewBox="0 0 1920 1081" fill="none" xmlns="http://www.w3.org/2000/svg">
<path d="M632.5 134.277C559.48 73.9772 299.5 0.27739 299.5 0.27739H1920V1080.28C1920 1080.28 1842.5 796.543 1537 999.092C1375 1106.5 1225 1080.28 1111 1058.5C997 1036.72 814 833.777 670.5 999.092C527.521 1163.81 0 991.023 0 991.023V736.464V690.995C20.0525 686.414 118.5 516.483 95 763.5C72.257 1002.56 156 967.545 367.5 872.552C670.5 736.464 1115.44 715.348 1075.5 872.552C1035.5 1030 1170.5 959.5 1170.5 959.5C1170.5 959.5 1291 891 1393.5 825C1496 759 1182 779 1431.5 659.5C1747.75 508.032 843.5 421.5 1318.5 239C1622 160 1749 342.96 1749 148.5C1749 -72.5 1205.5 255.316 1125.5 134.277C961 14.2395 705.52 194.578 632.5 134.277Z" fill="url(#paint0_linear_149_4)"/>
<defs>
<linearGradient id="paint0_linear_149_4" x1="496.624" y1="863.097" x2="1324.45" y2="-270.659" gradientUnits="userSpaceOnUse">
<stop stop-color="#FB764D"/>
<stop offset="1" stop-color="#852F42"/>
</linearGradient>
</defs>
</svg>
