<svg width="1920" height="1080" viewBox="0 0 1920 1080" fill="none" xmlns="http://www.w3.org/2000/svg">
<path d="M670.5 65C597.48 4.6998 299.5 0 299.5 0H1920V1080C1920 1080 1761.1 676.888 1508 881.733C1404.19 985.389 1249.24 998.815 1120 998.815C1024.54 998.815 631.5 833.5 488 998.815C345.021 1163.53 0 990.746 0 990.746V736.187V690.718C20.0525 686.136 15.473 722 53 761.24C223 939 266.5 755 408 833.5C689.5 959 1017.61 720.759 1075.5 872.275C1111.5 966.5 1224 930 1224 930C1224 930 1405.5 863 1207 736.187C1008.5 609.374 1080 596 1441.5 618C1778.5 618 1075.5 435 1238.5 298C1427.37 178.612 1607.21 381.981 1669 288.046C1730.79 194.111 1441.5 267.17 1351 134C1238.5 -31.5424 743.52 125.3 670.5 65Z" fill="url(#paint0_linear_149_3)"/>
<defs>
<linearGradient id="paint0_linear_149_3" x1="496.624" y1="862.82" x2="1324.45" y2="-270.936" gradientUnits="userSpaceOnUse">
<stop stop-color="#FB764D"/>
<stop offset="1" stop-color="#852F42"/>
</linearGradient>
</defs>
</svg>
