<svg width="1920" height="1080" viewBox="0 0 1920 1080" fill="none" xmlns="http://www.w3.org/2000/svg">
<path d="M642.5 89.9832C569.48 29.683 299.5 0 299.5 0H1920V1080C1920 1080 1761.1 676.888 1508 881.733C1404.19 985.389 1249.24 998.815 1120 998.815C1024.54 998.815 679 856.725 488 998.815C313 1129 0 990.746 0 990.746V736.187V690.718C20.0525 686.136 20.9834 761.24 53 761.24C263.636 761.24 124 966.837 398.5 907.241C775 825.5 850.5 828.35 1075.5 872.275C1270.5 889.781 1370.5 846.222 1370.5 846.222C1370.5 846.222 1467 827.716 1351 648.659C1235 469.603 1626.71 564.374 1514.5 469.603C1378.06 368.908 1128.6 327.505 1238.5 258.036C1427.37 138.648 1607.21 381.981 1669 288.046C1730.79 194.111 1412.5 210.5 1391.5 76.5C1351 -74 715.52 150.283 642.5 89.9832Z" fill="url(#paint0_linear_149_2)"/>
<defs>
<linearGradient id="paint0_linear_149_2" x1="496.624" y1="862.82" x2="1324.45" y2="-270.936" gradientUnits="userSpaceOnUse">
<stop stop-color="#FB764D"/>
<stop offset="1" stop-color="#852F42"/>
</linearGradient>
</defs>
</svg>
