<?xml version="1.0" encoding="utf-8"?>
<!-- Generator: Adobe Illustrator 24.1.3, SVG Export Plug-In . SVG Version: 6.00 Build 0)  -->
<svg version="1.1" id="Layer_1" xmlns="http://www.w3.org/2000/svg" xmlns:xlink="http://www.w3.org/1999/xlink" x="0px" y="0px"
	 viewBox="0 0 1366 768" style="enable-background:new 0 0 1366 768;" xml:space="preserve">
<style type="text/css">
	.st0{fill:#363636;}
	.st1{fill:none;}
</style>
<path class="st0" d="M1007,29"/>
<path class="st0" d="M608,0c0,0,677.5,111.5,550,239c-66.06,66.06-97.87,167.86-59.74,256.45c1.11,2.59,2.3,5.5,1.28,8.13
	c-0.62,1.6-1.97,2.8-3.27,3.92c-80.89,69.49-191.82,114.79-298.78,88.07C737.63,580.61,685.23,545.23,642,502
	c-228.5-228.5-12,322-269,67S0,768,0,768h1366V0H608z"/>
<path class="st1" d="M1101,502c0-12.71-56.36-23-126-23"/>
</svg>
