<svg id="Layer_1" data-name="Layer 1" xmlns="http://www.w3.org/2000/svg" xmlns:xlink="http://www.w3.org/1999/xlink" viewBox="0 0 1366 768"><defs><style>.cls-1{fill:url(#linear-gradient);}.cls-2{fill:url(#linear-gradient-2);}.cls-3{fill:url(#linear-gradient-3);}.cls-4{fill:url(#linear-gradient-4);}.cls-5{fill:url(#linear-gradient-5);}.cls-6{fill:url(#linear-gradient-6);}.cls-7{fill:url(#linear-gradient-7);}.cls-8{fill:url(#linear-gradient-8);}.cls-9{fill:url(#linear-gradient-9);}.cls-10{fill:url(#linear-gradient-10);}</style><linearGradient id="linear-gradient" x1="628.31" y1="632.33" x2="1244.31" y2="-118.67" gradientUnits="userSpaceOnUse"><stop offset="0.01" stop-color="#fb764d"/><stop offset="1" stop-color="#852f42"/></linearGradient><linearGradient id="linear-gradient-2" x1="468.68" y1="733.41" x2="496.68" y2="708.41" xlink:href="#linear-gradient"/><linearGradient id="linear-gradient-3" x1="485.64" y1="679.48" x2="519.64" y2="646.48" xlink:href="#linear-gradient"/><linearGradient id="linear-gradient-4" x1="753.09" y1="614.44" x2="790.09" y2="489.44" xlink:href="#linear-gradient"/><linearGradient id="linear-gradient-5" x1="23.13" y1="106.86" x2="157.13" y2="31.86" xlink:href="#linear-gradient"/><linearGradient id="linear-gradient-6" x1="773.72" y1="329.47" x2="983.72" y2="527.47" gradientUnits="userSpaceOnUse"><stop offset="0" stop-color="#fb764d"/><stop offset="1" stop-color="#852f42"/></linearGradient><linearGradient id="linear-gradient-7" x1="680.74" y1="483.75" x2="858.18" y2="483.75" xlink:href="#linear-gradient"/><linearGradient id="linear-gradient-8" x1="1087.7" y1="166.11" x2="1121.7" y2="112.11" xlink:href="#linear-gradient"/><linearGradient id="linear-gradient-9" x1="1110.64" y1="157.85" x2="1075.64" y2="242.85" xlink:href="#linear-gradient"/><linearGradient id="linear-gradient-10" x1="901.83" y1="314.54" x2="1012.83" y2="441.54" gradientUnits="userSpaceOnUse"><stop offset="0.01" stop-color="#fb764d"/><stop offset="0.48" stop-color="#c35448"/><stop offset="1" stop-color="#852f42"/></linearGradient></defs><path class="cls-1" d="M298,0S461,8,513,57.75s474,16.25,532.25,0S1248,139,1204,216.5s-210-98.5-344.5,0,184.5,109.5,236,236S940,608,940,608s-218,59-282-62S510,577,511,710,231,588,81,588c-22.8,0-40.89,2.22-55.17,6,.17,7.72-1.73,15-4.32,22.25s-5.85,14.28-8.44,21.47a148,148,0,0,0-5.91,23.11C5,672.52,3.41,684.45.32,695.83a5.23,5.23,0,0,1-.32.87V768H1366V0Z" transform="translate(0 0)"/><path class="cls-2" d="M463.59,720.75c-4.21,11,25.25,17.52,27.63,12.08,2.09-4.77,2.16-24.22-4.41-27.72C482.09,702.6,466.75,712.53,463.59,720.75Z" transform="translate(0 0)"/><path class="cls-3" d="M508.11,656.5c1.24-3.26,2.85-6.45,3.12-9.93s-1.24-7.4-4.5-8.62c-4-1.49-8.42,1.89-9.57,5.95s.07,8.4,1.51,12.37,3.13,8,2.89,12.24-14.48,31.65-1.12,22.48C509,685.12,504.63,665.56,508.11,656.5Z" transform="translate(0 0)"/><path class="cls-4" d="M717.25,590.78c6.55,5,14.27,9.48,22.45,8.72s15.93-9.13,13.11-16.86c-.54-1.47-1.42-2.85-1.62-4.41-.56-4.41,4.86-7.66,9.2-6.71s7.57,4.5,10.42,7.91c6.66,8,13.12,16.22,21.34,22.54s18.62,10.57,28.88,9.08,19.83-9.92,20.29-20.28c.56-12.28-10.54-21.6-20.8-28.37-11.58-7.63-23.75-14.82-37.22-18.11s-28.57-2.22-40,5.68c-5.43,3.76-9.88,8.93-15.77,11.91a25.41,25.41,0,0,1-25.19-1.6c-8.91-6-19.54-6.41-11.88,5.31C696.44,574.69,708.63,584.23,717.25,590.78Z" transform="translate(0 0)"/><path class="cls-5" d="M37.31,31.3c-8.94,7.27-17.27,16-21,26.89-5.5,16.09.33,34.6,11.82,47.12S56,125,72.6,128.63c8.32,1.82,16.92,2.84,25.39,1.81,9.87-1.19,19.21-5.13,28-9.88,13.33-7.24,25.95-16.87,33.18-30.21s8-30.91-1-43.07c-15.42-20.63-43.27-13.44-62.16-26.72-8.16-5.74-8.4-13.63-19.54-12C63.19,10.55,47.35,23.15,37.31,31.3Z" transform="translate(0 0)"/><path class="cls-6" d="M915.05,332.79a175.22,175.22,0,0,0-68.9-20.9c-11.52-1-23.42-.8-34.23,3.29-27.37,10.35-40.37,44.08-35,72.86S801.66,441,823.1,460.88c14,13,29.32,25,40,40.9s16,37,7.84,54.25c-2.7,5.7-6.82,11-7.22,17.32-.42,6.66,3.63,13,9.09,16.84s12.14,5.5,18.74,6.46c36.67,5.39,73.16-8.49,107.44-22.6,39.12-16.1,73.52-50.32,77.52-92.43,1.16-12.12.08-24.78-5.53-35.57-4.83-9.31-12.74-16.69-21.34-22.69-20.14-14.06-44.16-21.2-67.73-28.12l-72.63-21.32c-6.19-1.82-12.73-3.86-16.95-8.74s-4.67-13.56.77-17c3.78-2.4,8.69-1.47,13-.46l26.58,6.17c3.47.8,8.14,1,9.48-2.26,1.44-3.52-2.63-6.67-6.05-8.31C929.19,340,921.81,336.5,915.05,332.79Z" transform="translate(0 0)"/><path class="cls-7" d="M722.23,418.45c-18.25,1.4-37.07,12.84-41,30.72-.71,3.23-.87,6.79.73,9.69,2.3,4.19,7.4,5.76,12,7.15,9,2.74,18.07,6.39,24.55,13.19,1.88,2,3.59,4.41,3.64,7.15a11.17,11.17,0,0,1-2.24,6.16c-4.88,7.42-12.53,12.5-18.61,19s-10.74,15.78-7.57,24.08c3.94,10.33,17.78,13.11,28.43,10.12s19.78-9.93,30.27-13.43c23.31-7.78,48.39,2.41,70.91,12.22,8.44,3.67,18.42,7.27,26.43,2.74,10.41-5.88,10-21.35,5-32.17-7-14.91-19.86-26.3-33.6-35.41A185,185,0,0,0,787.38,462c-6.68-2.66-13.66-5.28-17.55-11.73-3.55-5.9-1.2-12.08-3.42-17.91C761.1,418.38,735.2,417.46,722.23,418.45Z" transform="translate(0 0)"/><path class="cls-8" d="M1042,65c-14.61,1-30.06,5.84-38.66,17.69-4,5.44-6.15,12-7.35,18.61-3.47,19.19,1.72,40.19,15.23,54.24s35.47,20,53.63,12.92c10.29-4,18.83-11.67,29.06-15.85,22.22-9.07,50.62,2.1,60.7,23.89,6,12.9,7.56,30.14,20.5,36,13.45,6.11,29.51-7.15,31-21.84s-7.06-28.56-17.06-39.42c-11.61-12.61-25.48-22.91-39.55-32.69-18.73-13-38.11-24.88-57.63-36.68C1073.69,70.9,1065.35,63.42,1042,65Z" transform="translate(0 0)"/><path class="cls-9" d="M1091,171.29c-9.22,3.82-18.08,9-28,10.38-9.17,1.31-18.63-.73-27.74,1-3.11.58-6.67,2.18-7.09,5.31-.57,4.23,4.72,6.53,8.9,7.39,21.21,4.39,42.39,9.23,62.77,16.56,15.37,5.52,30.49,12.52,46.73,14.29a8.34,8.34,0,0,0,4.68-.45,7.31,7.31,0,0,0,3-3.47c5.06-10.15,1.37-22.92-6-31.57C1133.69,173.49,1112.54,162.35,1091,171.29Z" transform="translate(0 0)"/><path class="cls-10" d="M914.21,356a15.4,15.4,0,0,0-6.67-.37c-2.19.53-4.24,2.32-4.29,4.57-.07,3.14,3.4,5,6.37,6.06a137.37,137.37,0,0,0,55,7.24c7.67-.56,17-1,21.25,5.38,1.73,2.61,2.15,5.88,3.51,8.71s4.4,5.41,7.38,4.42c2.42-.8,3.6-3.64,3.56-6.18-.12-6.78-6.39-11.72-12.43-14.78C966.32,360.12,937.84,360.81,914.21,356Z" transform="translate(0 0)"/></svg>