<?xml version="1.0" encoding="utf-8"?>

<svg version="1.1" id="Layer_1" xmlns="http://www.w3.org/2000/svg" xmlns:xlink="http://www.w3.org/1999/xlink" x="0px" y="0px"
	 viewBox="0 0 1366 768" style="enable-background:new 0 0 1366 768;" xml:space="preserve">
<style type="text/css">
	.st0{fill:url(#SVGID_1_);}
</style>
<linearGradient id="SVGID_1_" gradientUnits="userSpaceOnUse" x1="628.3099" y1="137.6701" x2="1244.3099" y2="888.67" gradientTransform="matrix(1 0 0 -1 0 770)">
	<stop  offset="1.000000e-02" style="stop-color:#FB764D"/>
	<stop  offset="1" style="stop-color:#852F42"/>
</linearGradient>
<path class="st0" d="M298,0c0,0,163,8,215,57.8s474,16.3,532.3,0S1248,139,1204,216.5s-210-98.5-344.5,0s184.5,109.5,236,236
	S940,608,940,608s-218,59-282-62s-148,31-147,164S231,588,81,588c-22.8,0-40.9,2.2-55.2,6c0.2,7.7-1.7,15-4.3,22.3
	s-5.9,14.3-8.4,21.5c-2.6,7.5-4.6,15.3-5.9,23.1c-2.2,11.7-3.8,23.6-6.8,35c-0.1,0.3-0.2,0.6-0.3,0.9V768h1366V0H298z"/>
</svg>
